<?xml version="1.0" encoding="utf-8"?>
<svg viewBox="92.406 30.172 276.051 248.594" xmlns="http://www.w3.org/2000/svg" xmlns:bx="https://boxy-svg.com">
  <defs>
    <radialGradient gradientUnits="userSpaceOnUse" cx="2430" cy="2845.971" r="1528.608" id="gradient-2">
      <stop offset="0" style="stop-color: rgba(0, 0, 0, 1)"/>
      <stop offset="1" style="stop-color: rgba(0, 0, 0, 1)"/>
    </radialGradient>
    <radialGradient gradientUnits="userSpaceOnUse" cx="60.453" cy="39.707" r="19.908" id="gradient-0" spreadMethod="reflect" gradientTransform="matrix(1.228784, 0, 0, 1.174647, 57.109894, 31.601633)">
      <stop offset="0" style="stop-color: rgba(196, 174, 169, 0.87)"/>
      <stop offset="1" style="stop-color: rgba(155, 117, 109, 0.87)"/>
    </radialGradient>
    <radialGradient gradientUnits="userSpaceOnUse" cx="59.677" cy="40.063" r="14.265" id="gradient-1" gradientTransform="matrix(1.161873, 0, 0, 1.170292, 58.983555, 30.976648)">
      <stop offset="0" style="stop-color: rgba(228, 52, 13, 0.94)"/>
      <stop offset="1" style="stop-color: rgba(132, 30, 8, 0.94)"/>
    </radialGradient>
    <filter id="drop-shadow-filter-0" x="-500%" y="-500%" width="1000%" height="1000%" bx:preset="drop-shadow 1 3 4 2 0.39 rgba(49,32,32,0.81)">
      <feGaussianBlur in="SourceAlpha" stdDeviation="2"/>
      <feOffset dx="3" dy="4"/>
      <feComponentTransfer result="offsetblur">
        <feFuncA id="spread-ctrl" type="linear" slope="0.78"/>
      </feComponentTransfer>
      <feFlood flood-color="rgba(49,32,32,0.81)"/>
      <feComposite in2="offsetblur" operator="in"/>
      <feMerge>
        <feMergeNode/>
        <feMergeNode in="SourceGraphic"/>
      </feMerge>
    </filter>
  </defs>
  <g transform="matrix(0.090295, 0, 0, -0.089808, 11.014983, 410.059967)" fill="#000000" stroke="none" style="">
    <path d="M 2080 4185 L 2080 4141 L 1563 4138 C 1100 4135 1042 4133 1014 4118 C 967 4092 921 4039 910 3998 C 903 3974 900 3730 902 3321 L 905 2682 L 935 2639 C 952 2616 983 2587 1005 2576 C 1044 2556 1060 2555 1563 2552 L 2080 2549 L 2080 2505 L 2080 2460 L 2220 2460 L 2270.694 2458.759 L 2270.694 1813.759 L 2271.953 1461.941 L 2431.259 1463.182 L 2588.376 1462.004 L 2587.117 1813.822 L 2587.117 2458.822 L 2640 2460 L 2780 2460 L 2780 2505 L 2780 2549 L 3298 2552 C 3795 2555 3816 2556 3854 2575 C 3875 2587 3907 2615 3924 2639 L 3955 2682 L 3958 3322 C 3960 3744 3957 3974 3950 4000 C 3939 4042 3896 4091 3846 4118 C 3814 4136 3650 4140 3003 4140 L 2780 4140 L 2780 4185 L 2780 4230 L 2430 4230 L 2080 4230 L 2080 4185 Z M 2780 4105 L 2780 4070 L 2430 4070 L 2080 4070 L 2080 4105 L 2080 4140 L 2430 4140 L 2780 4140 L 2780 4105 Z M 2780 2585 L 2780 2550 L 2430 2550 L 2080 2550 L 2080 2585 L 2080 2620 L 2430 2620 L 2780 2620 L 2780 2585 Z" style="fill: url(#gradient-2); fill-opacity: 0.87;"/>
  </g>
  <ellipse style="stroke: rgb(0, 0, 0); fill: rgb(255, 255, 255);" cx="129.729" cy="78.111" rx="22.904" ry="22.729"/>
  <ellipse style="stroke: rgb(0, 0, 0); fill: url(#gradient-0); paint-order: fill; fill-opacity: 0.85;" cx="131.393" cy="78.242" rx="24.463" ry="23.185"/>
  <ellipse style="opacity: 0.92; filter: url(#drop-shadow-filter-0); stroke: rgba(231, 27, 27, 0.4); fill: url(#gradient-1);" cx="128.32" cy="77.861" rx="16.574" ry="16.25"/>
</svg>